<svg xmlns="http://www.w3.org/2000/svg" width="12.76" height="23.598" viewBox="0 0 12.76 23.598">
  <g id="fb" transform="translate(18755 -1229)">
    <g id="Group_22" data-name="Group 22" transform="translate(-18755 1229)">
      <g id="facebook-logo" transform="translate(0 0)">
        <path id="Path_5" data-name="Path 5" d="M34.355,0l-3.06,0c-3.438,0-5.66,2.279-5.66,5.807V8.485H22.558a.481.481,0,0,0-.481.481v3.88a.481.481,0,0,0,.481.481h3.077v9.789a.481.481,0,0,0,.481.481h4.014a.481.481,0,0,0,.481-.481V13.327h3.6a.481.481,0,0,0,.481-.481V8.967a.482.482,0,0,0-.481-.481h-3.6V6.215c0-1.091.26-1.645,1.681-1.645h2.061a.481.481,0,0,0,.481-.481V.486A.481.481,0,0,0,34.355,0Z" transform="translate(-22.077)" fill="#fff"/>
      </g>
    </g>
  </g>
</svg>
