<svg xmlns="http://www.w3.org/2000/svg" width="22.836" height="22.551" viewBox="0 0 22.836 22.551">
  <g id="in" transform="translate(18705.822 -1229)">
    <g id="Group_20" data-name="Group 20" transform="translate(-18705.822 1229)">
      <g id="linkedin" transform="translate(0 0)">
        <g id="Group_9" data-name="Group 9" transform="translate(0 6.851)">
          <g id="Group_8" data-name="Group 8">
            <rect id="Rectangle_5" data-name="Rectangle 5" width="5.107" height="15.7" fill="#fff"/>
          </g>
        </g>
        <g id="Group_11" data-name="Group 11" transform="translate(7.136 6.851)">
          <g id="Group_10" data-name="Group 10">
            <path id="Path_8" data-name="Path 8" d="M171.881,160.184c-.054-.017-.106-.036-.163-.051s-.137-.029-.207-.04a4.575,4.575,0,0,0-.916-.093,7.1,7.1,0,0,0-5.488,3v-3H160v15.7h5.107v-8.564s3.859-5.375,5.488-1.427V175.7H175.7V165.105A5.092,5.092,0,0,0,171.881,160.184Z" transform="translate(-160 -160)" fill="#fff"/>
          </g>
        </g>
        <g id="Group_13" data-name="Group 13" transform="translate(0.269)">
          <g id="Group_12" data-name="Group 12">
            <ellipse id="Ellipse_2" data-name="Ellipse 2" cx="2.394" cy="2.394" rx="2.394" ry="2.394" fill="#fff"/>
          </g>
        </g>
      </g>
    </g>
  </g>
</svg>
