<svg xmlns="http://www.w3.org/2000/svg" viewBox="0 0 28.35 35.06"><defs><style>.cls-1{fill:#fff;}</style></defs><title>Asset 1</title><g id="Layer_2" data-name="Layer 2"><g id="Layer_1-2" data-name="Layer 1"><g id="location"><path id="Path_1316" data-name="Path 1316" class="cls-1" d="M14.17,19.39a4.73,4.73,0,1,0-4.72-4.73A4.73,4.73,0,0,0,14.17,19.39Zm0-7.09a2.36,2.36,0,1,1-2.36,2.36h0A2.36,2.36,0,0,1,14.17,12.3Z"/><path id="Path_1317" data-name="Path 1317" class="cls-1" d="M28.34,14.18A13.86,13.86,0,0,0,14.84,0h-.66A13.87,13.87,0,0,0,0,13.51v.67c0,6,3.36,9.46,7.05,13l2.41,2.32a38.18,38.18,0,0,1,4.72,5.58,36.4,36.4,0,0,1,4.72-5.58l2.43-2.32h0C25,23.64,28.34,20.19,28.34,14.18Zm-14.16,17a55.87,55.87,0,0,0-5-5.2c-3.81-3.62-6.82-6.48-6.82-11.75a11.43,11.43,0,0,1,11-11.82h.81a11.45,11.45,0,0,1,11.8,11v.79C26,21.82,19.52,24.53,14.18,31.13Z"/></g></g></g></svg>