<svg xmlns="http://www.w3.org/2000/svg" width="27.855" height="27.854" viewBox="0 0 27.855 27.854">
  <g id="seach" transform="translate(18542 -1284.581)">
    <g id="search" transform="translate(-18542 1284.581)">
      <path id="Path_1324" data-name="Path 1324" d="M23.346,23.346a1.741,1.741,0,0,1,2.464,0l6.7,6.7a1.741,1.741,0,0,1-2.461,2.464l-6.7-6.7a1.741,1.741,0,0,1,0-2.464Z" transform="translate(-5.167 -5.167)" fill="#89a3a3" fill-rule="evenodd"/>
      <path id="Path_1325" data-name="Path 1325" d="M11.316,20.891a9.575,9.575,0,1,0-9.575-9.575A9.575,9.575,0,0,0,11.316,20.891Zm11.316-9.575A11.316,11.316,0,1,1,11.316,0,11.316,11.316,0,0,1,22.632,11.316Z" fill="#89a3a3" fill-rule="evenodd"/>
    </g>
  </g>
</svg>
