<svg xmlns="http://www.w3.org/2000/svg" width="26.67" height="26.717" viewBox="0 0 26.67 26.717">
  <g id="the-loai" transform="translate(18614 -1285.442)">
    <g id="building" transform="translate(-18614 1285.442)">
      <g id="Group_2023" data-name="Group 2023" transform="translate(0 0)">
        <g id="Group_2022" data-name="Group 2022" transform="translate(0 0)">
          <path id="Path_1318" data-name="Path 1318" d="M.514,25.624V5.227a1.111,1.111,0,0,1,.739-1.079L13.467.057a1.1,1.1,0,0,1,1.023.17,1.186,1.186,0,0,1,.454.909V3.653L25.682.057A1.1,1.1,0,0,1,26.7.227a1.186,1.186,0,0,1,.455.909V25.567c0,.625,0,1.136,0,1.136H13.808s-10.819.032-13.294,0A6.673,6.673,0,0,1,.514,25.624ZM24.943,2.67l-10,3.3V24.487h3.863v-6.25a1.136,1.136,0,1,1,2.272,0v6.25h3.863ZM2.673,24.487H6.536v-6.25a1.136,1.136,0,1,1,2.272,0v6.25h3.863V2.67l-10,3.3Z" transform="translate(-0.49 0)" fill="#ecc43b"/>
          <path id="Path_1319" data-name="Path 1319" d="M346.617,130.818h-.739a1.136,1.136,0,0,1,0-2.273h.739a1.136,1.136,0,0,1,0,2.273Z" transform="translate(-339.037 -121.841)" fill="#ecc43b"/>
          <path id="Path_1320" data-name="Path 1320" d="M346.617,220.146h-.739a1.136,1.136,0,0,1,0-2.273h.739a1.136,1.136,0,0,1,0,2.273Z" transform="translate(-339.037 -206.51)" fill="#ecc43b"/>
          <path id="Path_1321" data-name="Path 1321" d="M112.4,130.818h-.739a1.178,1.178,0,0,1-1.136-1.136,1.14,1.14,0,0,1,1.136-1.136h.739a1.136,1.136,0,0,1,0,2.273Z" transform="translate(-92.609 -121.841)" fill="#ecc43b"/>
          <path id="Path_1322" data-name="Path 1322" d="M112.4,220.146h-.739a1.178,1.178,0,0,1-1.136-1.136,1.14,1.14,0,0,1,1.136-1.136h.739a1.136,1.136,0,0,1,0,2.273Z" transform="translate(-92.609 -206.51)" fill="#ecc43b"/>
        </g>
      </g>
    </g>
  </g>
</svg>
