<svg xmlns="http://www.w3.org/2000/svg" width="30.879" height="21.229" viewBox="0 0 30.879 21.229">
  <g id="you" transform="translate(18645.85 -1231.155)">
    <g id="Group_19" data-name="Group 19" transform="translate(-18645.85 1231.155)">
      <g id="youtube" transform="translate(0 0)">
        <g id="Group_14" data-name="Group 14">
          <path id="Path_9" data-name="Path 9" d="M29.566,82.046c-.838-1.49-1.747-1.764-3.6-1.868C24.12,80.052,19.47,80,15.443,80s-8.686.052-10.533.176c-1.847.106-2.758.378-3.6,1.87C.444,83.534,0,86.1,0,90.608v.015c0,4.493.444,7.075,1.307,8.547.845,1.49,1.754,1.76,3.6,1.885,1.849.108,6.5.172,10.535.172s8.677-.064,10.527-.17c1.851-.125,2.76-.4,3.6-1.885.87-1.472,1.31-4.055,1.31-8.547V90.61C30.878,86.1,30.438,83.534,29.566,82.046ZM11.579,96.4V84.825l9.649,5.79Z" transform="translate(0 -80)" fill="#fff"/>
        </g>
      </g>
    </g>
  </g>
</svg>
