<svg xmlns="http://www.w3.org/2000/svg" width="26.379" height="27.481" viewBox="0 0 26.379 27.481">
  <g id="dia-chi" transform="translate(18687 -1284.149)">
    <g id="location" transform="translate(-18687 1284.149)">
      <path id="Path_1316" data-name="Path 1316" d="M199.221,132.636a3.22,3.22,0,1,0-3.221-3.22A3.224,3.224,0,0,0,199.221,132.636Zm0-4.831a1.61,1.61,0,1,1-1.61,1.61A1.612,1.612,0,0,1,199.221,127.805Z" transform="translate(-186.032 -119.422)" fill="#ecc43b"/>
      <path id="Path_1317" data-name="Path 1317" d="M33.717,18.518H28.329c2.516-2.4,4.805-4.756,4.805-8.856A9.436,9.436,0,0,0,23.473,0a9.437,9.437,0,0,0-9.662,9.661c0,4.1,2.289,6.455,4.806,8.856H13.228l-2.944,8.964H36.661Zm-18.3-8.856A7.787,7.787,0,0,1,23.473,1.61a7.787,7.787,0,0,1,8.051,8.051c0,5.219-4.405,7.068-8.051,11.563a37.327,37.327,0,0,0-3.407-3.55c-2.595-2.469-4.645-4.419-4.645-8.013ZM13.16,23.885h5.8v-1.61H13.689l.705-2.147h5.858v-.036a25.529,25.529,0,0,1,3.221,3.818,25.439,25.439,0,0,1,3.22-3.818v.036h5.858l.705,2.147H27.981v1.61h5.8l.652,1.986H12.508Z" transform="translate(-10.284)" fill="#ecc43b"/>
    </g>
  </g>
</svg>
