<svg xmlns="http://www.w3.org/2000/svg" width="32.395" height="23.173" viewBox="0 0 32.395 23.173">
  <g id="email" transform="translate(18463 -1228.992)">
    <g id="Group_2059" data-name="Group 2059">
      <g id="email-2" data-name="email" transform="translate(-18462.994 1160.73)">
        <g id="Group_1887" data-name="Group 1887" transform="translate(0 68.267)">
          <path id="Path_1299" data-name="Path 1299" d="M32.389,68.262H0c-.012.661,0,.523,0,1.162V91.375l32.389.06V68.262ZM29.335,70.58,16.195,80.688,3.054,70.58Zm.74,18.508H2.313V72.93L15.49,83.065a1.157,1.157,0,0,0,1.409,0L30.076,72.93Z" transform="translate(0 -68.267)" fill="#fff"/>
        </g>
      </g>
      <g id="email-3" data-name="email" transform="translate(-18462.994 1160.73)">
        <g id="Group_1887-2" data-name="Group 1887" transform="translate(0 68.267)">
          <path id="Path_1299-2" data-name="Path 1299" d="M32.389,68.262H0c-.012.661,0,.523,0,1.162V91.375l32.389.06V68.262ZM29.335,70.58,16.195,80.688,3.054,70.58Zm.74,18.508H2.313V72.93L15.49,83.065a1.157,1.157,0,0,0,1.409,0L30.076,72.93Z" transform="translate(0 -68.267)" fill="#fff"/>
        </g>
      </g>
    </g>
  </g>
</svg>
